<?xml version="1.0" encoding="UTF-8" standalone="no"?>
<svg
   xmlns:dc="http://purl.org/dc/elements/1.1/"
   xmlns:cc="http://creativecommons.org/ns#"
   xmlns:rdf="http://www.w3.org/1999/02/22-rdf-syntax-ns#"
   xmlns:svg="http://www.w3.org/2000/svg"
   xmlns="http://www.w3.org/2000/svg"
   xmlns:xlink="http://www.w3.org/1999/xlink"
   id="svg8"
   version="1.1"
   viewBox="0 0 26.458333 39.6875"
   height="150"
   width="100">
  <defs
     id="defs2">
    <linearGradient
       id="linearGradient4542">
      <stop
         id="stop4538"
         offset="0"
         style="stop-color:#00df00;stop-opacity:1" />
      <stop
         id="stop4540"
         offset="1"
         style="stop-color:#17f500;stop-opacity:0.47126436" />
    </linearGradient>
    <linearGradient
       id="linearGradient4532">
      <stop
         id="stop4528"
         offset="0"
         style="stop-color:#ffc000;stop-opacity:1" />
      <stop
         id="stop4530"
         offset="1"
         style="stop-color:#ffff00;stop-opacity:0.98850572" />
    </linearGradient>
    <linearGradient
       id="linearGradient4524">
      <stop
         id="stop4520"
         offset="0"
         style="stop-color:#000000;stop-opacity:0" />
      <stop
         id="stop4522"
         offset="1"
         style="stop-color:#000000;stop-opacity:0;" />
    </linearGradient>
    <linearGradient
       gradientTransform="matrix(0.25807903,0,0,0.25807903,-20.819576,218.97479)"
       gradientUnits="userSpaceOnUse"
       y2="333.76379"
       x2="90.472305"
       y1="319.4007"
       x1="83.910713"
       id="linearGradient4526"
       xlink:href="#linearGradient4524" />
    <linearGradient
       gradientTransform="matrix(0.25807903,0,0,0.25807903,-20.819576,218.97479)"
       gradientUnits="userSpaceOnUse"
       y2="221.12767"
       x2="150.32368"
       y1="314.10983"
       x1="68.64006"
       id="linearGradient4534"
       xlink:href="#linearGradient4532" />
    <linearGradient
       gradientTransform="matrix(0.2061212,0.0224136,-0.0224136,0.2061212,-7.4271142,224.38034)"
       gradientUnits="userSpaceOnUse"
       y2="225.58539"
       x2="124.87127"
       y1="112.19254"
       x1="154.73079"
       id="linearGradient4544"
       xlink:href="#linearGradient4542" />
  </defs>
  <metadata
     id="metadata5">
    <rdf:RDF>
      <cc:Work
         rdf:about="">
        <dc:format>image/svg+xml</dc:format>
        <dc:type
           rdf:resource="http://purl.org/dc/dcmitype/StillImage" />
        <dc:title></dc:title>
      </cc:Work>
    </rdf:RDF>
  </metadata>
  <g
     transform="translate(0,-257.31248)"
     id="layer1">
    <path
       id="path10"
       d="m -18.701984,278.18074 c 0,0 12.4247564,4.67735 26.2536424,6.62629 13.6379166,1.92203 27.6710746,7.95824 31.7598296,13.12992 9.561779,12.09425 -64.618257,0.80884 -64.618257,0.80884 l 2.926429,-19.70464"
       style="fill:url(#linearGradient4534);fill-opacity:1;stroke:url(#linearGradient4526);stroke-width:0.06828341px;stroke-linecap:butt;stroke-linejoin:miter;stroke-opacity:1" />
    <path
       id="path4536"
       d="m -4.8180156,251.13236 c 0,0 0.856899,8.28709 3.712073,10.80922 4.367613,3.85817 13.1307286,2.25317 23.2912816,4.73994 8.952461,2.19109 24.452784,12.90691 24.452784,12.90691 l 1.860791,-25.8116 z"
       style="fill:url(#linearGradient4544);fill-opacity:1;stroke:none;stroke-width:0.05485771px;stroke-linecap:butt;stroke-linejoin:miter;stroke-opacity:1" />
    <g
       id="flowRoot4586"
       style="font-style:normal;font-weight:normal;font-size:40px;line-height:1.25;font-family:sans-serif;letter-spacing:0px;word-spacing:0px;fill:#000000;fill-opacity:1;stroke:none"
       transform="matrix(0.13738901,0,0,0.13738901,2.2635971,264.00316)"
       aria-label="Товар">
      <path
         id="path4594"
         style=""
         d="m 16.310547,54.087891 h 24.667969 v 3.320312 H 30.626953 V 83.248047 H 26.662109 V 57.408203 H 16.310547 Z" />
      <path
         id="path4596"
         style=""
         d="m 53.126953,63.892578 q -2.890625,0 -4.570312,2.265625 -1.679688,2.246094 -1.679688,6.171875 0,3.925781 1.660156,6.191406 1.679688,2.246094 4.589844,2.246094 2.871094,0 4.550781,-2.265625 1.679688,-2.265625 1.679688,-6.171875 0,-3.886719 -1.679688,-6.152344 -1.679687,-2.285156 -4.550781,-2.285156 z m 0,-3.046875 q 4.6875,0 7.363281,3.046875 2.675782,3.046875 2.675782,8.4375 0,5.371094 -2.675782,8.4375 -2.675781,3.046875 -7.363281,3.046875 -4.707031,0 -7.382812,-3.046875 -2.65625,-3.066406 -2.65625,-8.4375 0,-5.390625 2.65625,-8.4375 2.675781,-3.046875 7.382812,-3.046875 z" />
      <path
         id="path4598"
         style=""
         d="m 72.560547,73.169922 v 7.207031 h 5.117187 q 2.460938,0 3.75,-0.917969 1.289063,-0.9375 1.289063,-2.695312 0,-1.757813 -1.289063,-2.675781 -1.289062,-0.917969 -3.75,-0.917969 z m 0,-8.925781 v 6.054687 h 4.726562 q 2.03125,0 3.320313,-0.800781 1.289062,-0.820313 1.289062,-2.265625 0,-1.445313 -1.289062,-2.207031 -1.289063,-0.78125 -3.320313,-0.78125 z m -3.59375,-2.871094 h 8.554687 q 3.847657,0 5.917969,1.40625 2.070313,1.40625 2.070313,4.003906 0,2.011719 -1.054688,3.203125 -1.054687,1.171875 -3.125,1.464844 2.480469,0.46875 3.847656,1.953125 1.367188,1.484375 1.367188,3.710937 0,2.929688 -2.265625,4.53125 -2.246094,1.601563 -6.425781,1.601563 h -8.886719 z" />
      <path
         id="path4600"
         style=""
         d="m 102.63867,72.251953 q -4.355467,0 -6.035154,0.996094 -1.679688,0.996094 -1.679688,3.398437 0,1.914063 1.25,3.046875 1.269531,1.113282 3.4375,1.113282 2.988282,0 4.785152,-2.109375 1.81641,-2.128907 1.81641,-5.644532 v -0.800781 z m 7.16797,-1.484375 v 12.480469 h -3.59375 v -3.320313 q -1.23047,1.992188 -3.06641,2.949219 -1.83593,0.9375 -4.492183,0.9375 -3.359375,0 -5.351563,-1.875 -1.972656,-1.894531 -1.972656,-5.058594 0,-3.691406 2.460938,-5.566406 2.480468,-1.875 7.382814,-1.875 h 5.03906 v -0.351562 q 0,-2.480469 -1.64062,-3.828125 -1.6211,-1.367188 -4.57032,-1.367188 -1.874997,0 -3.652341,0.449219 -1.777343,0.449219 -3.417968,1.347656 v -3.320312 q 1.972656,-0.761719 3.828125,-1.132813 1.855468,-0.390625 3.613284,-0.390625 4.74609,0 7.08984,2.460938 2.34375,2.460937 2.34375,7.460937 z" />
      <path
         id="path4602"
         style=""
         d="M 120.70508,79.966797 V 91.568359 H 117.0918 V 61.373047 h 3.61328 v 3.320312 q 1.13281,-1.953125 2.85156,-2.890625 1.73828,-0.957031 4.14063,-0.957031 3.98437,0 6.46484,3.164063 2.5,3.164062 2.5,8.320312 0,5.15625 -2.5,8.320313 -2.48047,3.164062 -6.46484,3.164062 -2.40235,0 -4.14063,-0.9375 -1.71875,-0.957031 -2.85156,-2.910156 z m 12.22656,-7.636719 q 0,-3.964844 -1.64062,-6.210937 -1.6211,-2.265625 -4.47266,-2.265625 -2.85156,0 -4.49219,2.265625 -1.62109,2.246093 -1.62109,6.210937 0,3.964844 1.62109,6.230469 1.64063,2.246094 4.49219,2.246094 2.85156,0 4.47266,-2.246094 1.64062,-2.265625 1.64062,-6.230469 z" />
    </g>
  </g>
</svg>
